PathFileType	4	(X/Y/Z)	G:\GRF\jawan data\CompiledGRF\03. Mohit Kumar\0231~ac~Walking 08_markers.trc
DataRate	CameraRate	NumFrames	NumMarkers	Units	OrigDataRate	OrigDataStartFrame	OrigNumFrames
100.000000	100.000000	10	18	mm	100.000000	438	876
Frame#	Time	c7			r should			l should			sacrum			r asis			r bar 1			r knee 1			r bar 2			r mall			r heel			r met			l asis			l bar 1			l knee 1			l bar 2			l mall			l heel			l met			
		X1	Y1	Z1	X2	Y2	Z2	X3	Y3	Z3	X4	Y4	Z4	X5	Y5	Z5	X6	Y6	Z6	X7	Y7	Z7	X8	Y8	Z8	X9	Y9	Z9	X10	Y10	Z10	X11	Y11	Z11	X12	Y12	Z12	X13	Y13	Z13	X14	Y14	Z14	X15	Y15	Z15	X16	Y16	Z16	X17	Y17	Z17	X18	Y18	Z18	

439	4.38	-612.8812866210938	1518.4208984375	248.6566314697266	-558.3702392578125	1468.537963867188	409.1651916503906	-567.0574340820313	1481.126953125	85.76403045654297	-741.8905639648438	1066.202270507813	249.8972473144531	-558.2964477539063	1022.304992675781	358.3609008789063	-507.7035522460938	624.7820434570313	448.2003479003906	-473.0284729003906	548.0784301757813	402.4773559570313	-692.7492065429688	317.5763549804688	417.5681457519531	-759.4291381835938	202.5240936279297	358.0429382324219	-824.7191772460938	202.2565002441406	302.0332641601563	-664.5530395507813	93.27120971679688	365.4656066894531	-572.7490844726563	1027.059204101563	111.4246368408203	-629.484619140625	602.2735595703125	63.21328735351563	-618.7117919921875	517.7122192382813	125.1367645263672	-675.6299438476563	242.9383697509766	86.25249481201172	-699.4131469726563	76.27665710449219	158.1148529052734	-767.6644287109375	40.4711799621582	203.5951538085938	-557.2413330078125	43.02555847167969	188.5866241455078	
440	4.39	-603.3650512695313	1518.18505859375	248.5628356933594	-549.145751953125	1467.94482421875	409.07373046875	-557.5477905273438	1480.857788085938	85.68239593505859	-733.016845703125	1065.693481445313	250.1688537597656	-549.6342163085938	1022.242065429688	357.7752685546875	-491.6950073242188	626.7609252929688	447.0075073242188	-457.1301574707031	550.3138427734375	400.5337829589844	-668.6740112304688	310.6390991210938	417.2492065429688	-730.7855834960938	192.8903350830078	358.1758728027344	-796.3333740234375	189.0623931884766	302.0132446289063	-630.1508178710938	89.19440460205078	366.7396545410156	-564.864013671875	1026.2958984375	110.9629592895508	-624.7359619140625	601.9169311523438	63.43764114379883	-615.605712890625	516.9397583007813	125.5284118652344	-674.1878051757813	242.8209991455078	86.57246398925781	-699.302734375	76.38570404052734	158.3534545898438	-767.7024536132813	40.66400146484375	203.8965759277344	-557.069580078125	42.88446807861328	188.7915802001953	
441	4.4	-593.920654296875	1517.86328125	248.5224304199219	-539.892333984375	1467.239379882813	409.0073852539063	-548.35107421875	1480.50830078125	85.65889739990234	-724.314208984375	1065.120849609375	250.4273376464844	-540.3817138671875	1022.113891601563	357.6248168945313	-476.8897705078125	628.453369140625	445.661376953125	-442.0628356933594	552.35595703125	398.6051330566406	-644.5260009765625	303.4484252929688	417.0538330078125	-701.7445068359375	183.1202850341797	358.4562683105469	-766.0335083007813	175.0973815917969	302.2526245117188	-595.2654418945313	85.27322387695313	368.2271728515625	-556.7498168945313	1025.4970703125	110.5565338134766	-619.8727416992188	601.4651489257813	63.70054244995117	-611.2293090820313	516.5182495117188	125.6789398193359	-672.6306762695313	242.7765808105469	86.87484741210938	-699.142822265625	76.43583679199219	158.5167999267578	-767.6748046875	40.84842300415039	204.1974334716797	-556.7301025390625	42.66416168212891	189.0071105957031	
442	4.41	-584.4893188476563	1517.396728515625	248.4532623291016	-530.771484375	1466.40283203125	408.9823913574219	-538.9181518554688	1479.892700195313	85.57020568847656	-715.7293090820313	1064.484008789063	250.7260437011719	-531.5983276367188	1021.992431640625	357.4721069335938	-463.1900634765625	629.7874755859375	444.4313049316406	-427.857421875	554.1262817382813	396.9852600097656	-620.204345703125	295.9093017578125	417.2058715820313	-672.2616577148438	173.2825927734375	358.9970397949219	-735.5642700195313	161.4591217041016	302.6686096191406	-560.0202026367188	81.33282470703125	369.7861938476563	-548.983642578125	1024.684204101563	110.4143676757813	-614.920166015625	601.0127563476563	63.91011810302734	-606.8572998046875	516.0819091796875	125.784797668457	-670.8482666015625	242.5889739990234	87.08546447753906	-698.9451293945313	76.47652435302734	158.6685485839844	-767.7540893554688	41.06998443603516	204.4596405029297	-556.5526733398438	42.54977035522461	189.1050720214844	
443	4.42	-574.9931640625	1516.722290039063	248.3810119628906	-521.3748168945313	1465.429809570313	408.9171752929688	-529.3143920898438	1479.082641601563	85.48211669921875	-707.0834350585938	1063.785034179688	251.0201873779297	-522.328857421875	1021.737243652344	356.9525146484375	-450.8020935058594	630.656005859375	443.21826171875	-414.6597900390625	555.5082397460938	395.5615234375	-595.3505249023438	288.0470886230469	417.5588989257813	-642.1018676757813	163.4056854248047	359.7268676757813	-704.6053466796875	148.0603942871094	303.4032592773438	-525.4448852539063	77.20530700683594	370.7615661621094	-540.5298461914063	1023.849731445313	110.2346801757813	-609.9232177734375	600.4728393554688	63.98836517333984	-602.74169921875	515.3851318359375	125.9052886962891	-669.093994140625	242.4224243164063	87.18155670166016	-698.8081665039063	76.57716369628906	158.8379211425781	-767.6920776367188	41.22869110107422	204.7031707763672	-556.3838500976563	42.46096801757813	189.2979431152344	
444	4.43	-565.59326171875	1515.95703125	248.3833465576172	-512.0170288085938	1464.412353515625	408.861083984375	-519.9688110351563	1478.24560546875	85.44482421875	-698.3943481445313	1063.085083007813	251.3145751953125	-513.162841796875	1021.317626953125	356.7826843261719	-439.6999816894531	630.8807373046875	441.9960632324219	-402.4330444335938	556.4022827148438	394.2311096191406	-570.4853515625	280.375732421875	417.7742614746094	-611.2764892578125	153.5716400146484	360.5244140625	-673.1633911132813	134.933837890625	304.5022888183594	-490.730712890625	73.5555419921875	371.3252563476563	-531.6771240234375	1023.013122558594	109.9509429931641	-604.9501953125	599.7991943359375	63.97811889648438	-598.7869262695313	514.4324340820313	125.8710021972656	-667.3525390625	242.3112030029297	87.27332305908203	-698.6744995117188	76.66447448730469	158.9022674560547	-767.5578002929688	41.32240295410156	204.839599609375	-556.2288208007813	42.43593215942383	189.3768005371094	
445	4.44	-556.2671508789063	1515.063598632813	248.427978515625	-502.6802978515625	1463.353881835938	408.8639526367188	-510.9262390136719	1477.33984375	85.46080780029297	-689.72705078125	1062.459228515625	251.6068572998047	-504.5301208496094	1020.606384277344	356.7055358886719	-429.946044921875	630.6661987304688	440.9074096679688	-390.7622680664063	556.7948608398438	393.2200622558594	-546.2412109375	273.2664794921875	418.1571960449219	-580.065673828125	144.1580963134766	361.4302978515625	-641.260498046875	122.0963668823242	305.8499755859375	-455.5364379882813	70.53586578369141	371.4569091796875	-523.7822265625	1021.971557617188	109.7630233764648	-599.9808349609375	599.0990600585938	63.94649124145508	-595.47265625	513.2869262695313	125.8481140136719	-665.4442749023438	242.1019897460938	87.30728149414063	-698.4246826171875	76.69678497314453	158.9546508789063	-767.4728393554688	41.46793746948242	204.9347686767578	-556.0715942382813	42.373291015625	189.4203033447266	
446	4.45	-546.9805297851563	1514.095458984375	248.4346313476563	-493.3543395996094	1462.22998046875	408.8572998046875	-501.6365051269531	1476.2373046875	85.46905517578125	-680.9774780273438	1061.799560546875	251.8976287841797	-495.503173828125	1019.676940917969	356.4984741210938	-420.8668518066406	629.9019165039063	439.9771118164063	-379.7159423828125	556.7898559570313	392.3228454589844	-521.3240966796875	266.0263671875	418.4102478027344	-548.4896850585938	135.2070007324219	362.4119873046875	-608.8827514648438	109.7053756713867	307.3838500976563	-420.0859680175781	68.39432525634766	371.14208984375	-515.6621704101563	1020.619140625	109.7728576660156	-594.8983764648438	598.3491821289063	63.93261337280273	-590.956298828125	512.5342407226563	125.8859939575195	-663.4774169921875	241.8213500976563	87.36519622802734	-698.201904296875	76.77066802978516	159.0172576904297	-767.4674682617188	41.72943878173828	205.0177764892578	-555.9915161132813	42.359375	189.4112396240234	
447	4.46	-537.7981567382813	1513.080200195313	248.4860076904297	-484.0227966308594	1461.04931640625	408.8568420410156	-492.2578430175781	1475.035766601563	85.47820281982422	-672.1290283203125	1061.0361328125	252.1506500244141	-486.1323547363281	1018.4619140625	356.5762634277344	-412.2490539550781	628.7838745117188	439.0894165039063	-369.4224548339844	556.4990234375	391.377197265625	-496.8138732910156	259.2089233398438	418.7421875	-516.9586181640625	126.8536605834961	363.2734069824219	-576.3819580078125	97.98326110839844	308.8994750976563	-384.5947875976563	67.30525207519531	371.3075256347656	-507.0869445800781	1019.402526855469	109.8678970336914	-589.82958984375	597.66162109375	63.88931655883789	-586.3829956054688	511.7461547851563	125.9022827148438	-661.6044311523438	241.5238952636719	87.4283447265625	-698.1036376953125	76.89518737792969	159.05224609375	-767.3671264648438	41.9704704284668	205.1066589355469	-556.0206909179688	42.37363815307617	189.4652099609375	
448	4.47	-528.5773315429688	1511.966918945313	248.5906829833984	-474.5577392578125	1459.814208984375	408.9758605957031	-483.1082763671875	1473.739624023438	85.57510375976563	-663.2073974609375	1060.162231445313	252.4091339111328	-477.3239135742188	1017.223815917969	356.4985046386719	-403.8894348144531	627.4446411132813	438.4029541015625	-359.6903686523438	555.9654541015625	390.5567626953125	-471.9922790527344	252.4167938232422	419.0210571289063	-485.5950622558594	119.2250823974609	363.7102355957031	-543.6776733398438	87.09676361083984	310.0404052734375	-349.7174987792969	66.80075836181641	370.930908203125	-497.8549194335938	1018.192077636719	109.7400817871094	-584.8779907226563	597.0640258789063	63.91135025024414	-582.204833984375	510.9745178222656	126.0264511108398	-659.7940673828125	241.3031768798828	87.37876892089844	-697.967529296875	77.08670043945313	159.0823211669922	-767.2210693359375	42.20541381835938	205.228271484375	-555.9622192382813	42.36156463623047	189.5122375488281	
